<svg width="24" height="24" viewBox="0 0 24 24" fill="none" xmlns="http://www.w3.org/2000/svg"><path fill-rule="evenodd" clip-rule="evenodd" d="M12 2a8 8 0 00-8 8c0 3.098 2.016 6.104 4.226 8.437A29.433 29.433 0 0012 21.773a29.427 29.427 0 003.774-3.335C17.984 16.103 20 13.097 20 10a8 8 0 00-8-8zm0 21l-.555.832-.003-.002-.007-.005-.023-.015a28.518 28.518 0 01-1.441-1.074 31.437 31.437 0 01-3.197-2.923C4.484 17.396 2 13.902 2 10a10 10 0 0120 0c0 3.902-2.484 7.396-4.774 9.813a31.442 31.442 0 01-4.254 3.726 18.887 18.887 0 01-.384.27l-.023.016-.007.005-.002.001s-.001.001-.556-.831zm0 0l.555.832a1 1 0 01-1.11 0L12 23z" fill="#00856F"/><path fill-rule="evenodd" clip-rule="evenodd" d="M17 10a5 5 0 11-10 0 5 5 0 0110 0zm-2 0a3 3 0 11-6 0 3 3 0 016 0z" fill="#00856F"/></svg>