<svg width="20" height="20" viewBox="0 0 20 20" fill="none" xmlns="http://www.w3.org/2000/svg"><path d="M13.834 11.667c-.167-.084-1.25-.584-1.417-.667-.167-.083-.333-.083-.5.083-.167.167-.5.667-.667.834-.083.166-.25.166-.416.083a6.81 6.81 0 01-1.667-1A9.597 9.597 0 018 9.583c-.083-.166 0-.333.084-.416.083-.084.166-.25.333-.334.083-.083.167-.25.167-.333a.253.253 0 000-.333c-.084-.084-.5-1.084-.667-1.5-.083-.584-.25-.584-.417-.584h-.416c-.167 0-.417.167-.5.25-.5.5-.75 1.084-.75 1.75.083.75.333 1.5.833 2.167.917 1.333 2.083 2.417 3.5 3.083.417.167.75.334 1.167.417.416.167.833.167 1.333.083.583-.083 1.083-.5 1.417-1 .166-.333.166-.666.083-1l-.333-.166zm2.083-7.584a8.299 8.299 0 00-11.75 0C1.5 6.75 1 10.833 2.834 14.083l-1.167 4.25 4.417-1.166a8.3 8.3 0 003.916 1 8.216 8.216 0 008.25-8.25c.084-2.167-.833-4.25-2.333-5.834zm-2.25 11.667c-1.083.667-2.333 1.083-3.667 1.083-1.25 0-2.416-.333-3.5-.916l-.25-.167-2.583.667.667-2.5-.167-.25c-2-3.334-1-7.5 2.25-9.584 3.25-2.083 7.417-1 9.417 2.167 2 3.25 1.083 7.5-2.167 9.5z" fill="#fff"/></svg>